<?xml version="1.0" encoding="utf-8"?><!-- Uploaded to: SVG Repo, www.svgrepo.com, Generator: SVG Repo Mixer Tools -->
<svg width="800px" height="800px" viewBox="-0.5 0 25 25" fill="none" xmlns="http://www.w3.org/2000/svg">
<path d="M18 2.91992V10.9199" stroke="#000000" stroke-width="1.5" stroke-linecap="round" stroke-linejoin="round"/>
<path d="M21.2008 7.71997L18.0008 10.92L14.8008 7.71997" stroke="#000000" stroke-width="1.5" stroke-linecap="round" stroke-linejoin="round"/>
<path d="M10.58 3.96997H6C4.93913 3.96997 3.92178 4.39146 3.17163 5.1416C2.42149 5.89175 2 6.9091 2 7.96997V17.97C2 19.0308 2.42149 20.0482 3.17163 20.7983C3.92178 21.5485 4.93913 21.97 6 21.97H18C19.0609 21.97 20.0783 21.5485 20.8284 20.7983C21.5786 20.0482 22 19.0308 22 17.97V13.8999" stroke="#000000" stroke-width="1.5" stroke-linecap="round" stroke-linejoin="round"/>
<path d="M2 9.96997H5.37006C6.16571 9.96997 6.92872 10.286 7.49133 10.8486C8.05394 11.4112 8.37006 12.1743 8.37006 12.97C8.37006 13.7656 8.05394 14.5287 7.49133 15.0913C6.92872 15.6539 6.16571 15.97 5.37006 15.97H2" stroke="#000000" stroke-width="1.5" stroke-linecap="round" stroke-linejoin="round"/>
</svg>